<?xml version="1.0" standalone="no"?>
<!DOCTYPE svg PUBLIC "-//W3C//DTD SVG 20010904//EN"
 "http://www.w3.org/TR/2001/REC-SVG-20010904/DTD/svg10.dtd">
<svg version="1.0" xmlns="http://www.w3.org/2000/svg"
 width="883.000000pt" height="880.000000pt" viewBox="0 0 883.000000 880.000000"
 preserveAspectRatio="xMidYMid meet">

<g transform="translate(0.000000,880.000000) scale(0.100000,-0.100000)"
fill="#000000" stroke="none">
<path d="M2650 7258 c-11 -18 -20 -38 -20 -44 0 -25 -169 -528 -250 -744 -158
-422 -337 -816 -475 -1050 -38 -63 -163 -266 -278 -450 -538 -859 -600 -969
-652 -1171 -61 -232 -59 -554 5 -810 122 -492 525 -914 1033 -1080 264 -87
549 -100 1142 -54 176 14 379 30 450 35 72 6 173 15 225 20 473 48 711 56 880
27 98 -16 313 -35 720 -62 129 -9 314 -23 410 -32 249 -24 542 -21 683 6 226
43 416 118 603 237 155 99 364 305 469 463 171 257 255 533 255 836 0 405
-110 668 -600 1430 -60 94 -141 222 -180 285 -39 63 -93 149 -120 190 -388
598 -420 669 -630 1370 -113 376 -139 455 -189 565 -26 58 -33 65 -58 65 -57
0 -59 -9 -29 -111 58 -193 81 -307 135 -684 95 -651 92 -1137 -8 -1660 -69
-360 -182 -673 -401 -1111 -165 -332 -247 -477 -444 -794 -130 -210 -400 -600
-414 -600 -10 1 -94 116 -143 195 -151 249 -258 610 -314 1059 -21 170 -55
591 -55 681 0 79 -15 121 -23 64 -3 -19 -13 -140 -22 -269 -53 -765 -153
-1193 -358 -1540 -41 -70 -131 -190 -141 -189 -6 0 -35 37 -65 82 -30 45 -123
183 -206 307 -640 953 -970 1765 -1050 2580 -48 481 16 1360 120 1660 77 222
105 312 100 320 -4 6 -24 10 -46 10 -34 0 -42 -5 -59 -32z m1750 -3633 c0 -12
7 -56 14 -96 8 -41 29 -157 46 -259 35 -208 82 -384 145 -540 54 -132 91 -201
174 -319 92 -130 91 -128 78 -164 -13 -40 -140 -167 -189 -190 -31 -15 -71
-17 -295 -17 -296 0 -324 6 -365 77 -13 21 -37 60 -55 87 -18 26 -33 53 -33
58 0 6 22 47 49 92 97 160 170 319 252 549 43 122 54 169 103 457 44 254 47
272 52 288 6 20 24 4 24 -23z"/>
</g>
</svg>
