<?xml version="1.0" standalone="no"?>
<!DOCTYPE svg PUBLIC "-//W3C//DTD SVG 20010904//EN"
 "http://www.w3.org/TR/2001/REC-SVG-20010904/DTD/svg10.dtd">
<svg version="1.0" xmlns="http://www.w3.org/2000/svg"
 width="200.000000pt" height="200.000000pt" viewBox="0 0 200.000000 200.000000"
 preserveAspectRatio="xMidYMid meet">

<g transform="translate(0.000000,200.000000) scale(0.100000,-0.100000)"
fill="#000000" stroke="none">
<path d="M223 1357 c-54 -59 -89 -121 -107 -192 -41 -156 0 -309 115 -427 173
-177 457 -178 633 -2 62 63 113 156 122 228 4 25 10 46 14 46 4 0 10 -22 14
-49 15 -116 123 -254 240 -311 272 -130 588 35 639 334 21 123 -20 264 -104
360 -43 48 -59 55 -78 32 -9 -11 -4 -23 25 -57 21 -24 51 -73 68 -109 28 -59
31 -74 31 -160 0 -82 -4 -103 -27 -153 -35 -75 -113 -156 -185 -193 -54 -27
-66 -29 -168 -29 -98 0 -116 3 -167 27 -111 52 -185 146 -217 277 -12 49 -21
67 -35 69 -10 2 -23 -2 -28 -10 -7 -10 -11 -10 -15 0 -7 18 -41 15 -51 -5 -5
-10 -12 -38 -16 -62 -9 -62 -60 -153 -112 -200 -197 -182 -507 -119 -622 126
-23 50 -27 71 -27 153 0 86 3 101 31 161 18 37 48 84 68 106 39 44 45 67 20
77 -9 3 -17 6 -19 6 -1 0 -20 -19 -42 -43z"/>
<path d="M487 939 c-22 -13 -47 -61 -47 -93 0 -14 13 -40 29 -58 24 -27 36
-33 71 -33 35 0 47 6 71 33 16 18 29 44 29 58 0 33 -25 81 -49 94 -25 13 -81
12 -104 -1z"/>
<path d="M1407 939 c-22 -13 -47 -61 -47 -93 0 -14 13 -40 29 -58 24 -27 36
-33 71 -33 35 0 47 6 71 33 16 18 29 44 29 58 0 33 -25 81 -49 94 -25 13 -81
12 -104 -1z"/>
</g>
</svg>
